<svg xmlns="http://www.w3.org/2000/svg" viewBox="0 0 270.9 186.82"><title>Queerologie</title><g style="isolation:isolate"><g id="b2ffad78-8481-4d51-947d-173cb613097a" data-name="Calque 2"><g id="ad35bf53-f029-4bd0-8f55-3c79cb0c249a" data-name="Venn"><path d="M129.39,46.91c1.57.16,2.63,1.05,3.83,1.63s2.46,1.06,3.57-.26a1.76,1.76,0,0,1,.82-.36c1.71-.48,2.13-1.63,1.14-3.15a13.67,13.67,0,0,0-2.81-3c-1.17-1-2.19-2.18-3.77-2.65a12.93,12.93,0,0,0-3.2-.34c.33-3-.82-6.16,1.28-8.88,2.7-3.48,7.37-3.65,9.73,0A5.83,5.83,0,0,1,140.5,34a37,37,0,0,0-.15,4.7c0,3.94-.18,7.88-.28,11.81-.07,2.6.08,5.21-.18,7.79s.05,5.35-.2,8,0,5-.21,7.48c-.23,2.29,0,4.59-.21,6.86-.19,1.85-.1,3.69-.17,5.53a6.64,6.64,0,0,1-1.23,3.26,56.8,56.8,0,0,1-5.61,7.06c-.22.24-.41.52-.71.91a21.53,21.53,0,0,1-.24-2.7c0-2.68-.22-5.34-.29-8-.09-3.48-.26-7-.4-10.43-.13-3.13-.28-6.26-.41-9.4-.15-3.61-.27-7.23-.42-10.84C129.66,53,129.49,50,129.39,46.91Z" style="fill:#f2f2f2"/><path d="M140,76.5a11.14,11.14,0,0,1,7.42,8.78c.46,3.62-1,6.52-2.81,9.33a55.32,55.32,0,0,1-5.54,6.87c-2.91,3.24-6.06,6.27-8.74,9.72q-3.09,4,.23,7.53a6.22,6.22,0,0,1,1.54,4.44c0,1.69,0,3.4,0,5.14a4.28,4.28,0,0,1-1.91-1.25,18.86,18.86,0,0,1-6.37-9.91,13.81,13.81,0,0,1,1-9.07,43.79,43.79,0,0,1,6.56-9.68A88.82,88.82,0,0,0,138,90.1a9.33,9.33,0,0,0,1.7-5.51C139.6,81.89,139.86,79.2,140,76.5Z" style="fill:#f2f2f2"/><path d="M130.19,81.58a8.69,8.69,0,0,1-2.93-1.75,33.26,33.26,0,0,1-9.75-12.45,27.37,27.37,0,0,1-2.16-8.14,21.38,21.38,0,0,1,1.29-10.34,14.16,14.16,0,0,1,11-9.27,17.7,17.7,0,0,1,3.77-.16,4.17,4.17,0,0,1,2.71,1.43c1.34,1.24,2.92,2.24,3.95,3.81a5.76,5.76,0,0,1,.48.88c.42,1,.15,1.66-.89,1.87a5,5,0,0,0-1.79.82c-1,.61-1.93.16-2.83-.37a8.29,8.29,0,0,0-4.11-1.49,5.27,5.27,0,0,0-4.17,1.95,9.49,9.49,0,0,0-2.36,6.2,25.59,25.59,0,0,0,1,8.64,16.78,16.78,0,0,0,5.93,8.12,1.09,1.09,0,0,1,.5,1c-.11,2.7.35,5.39.21,8.1A6.83,6.83,0,0,0,130.19,81.58Zm1.4-39.4a1.64,1.64,0,0,0,2.06,1.31C133.19,42.68,132.78,41.83,131.59,42.18Z" style="fill:#f2f2f2"/><path d="M138.86,125.68a15.21,15.21,0,0,1,3.33,3.18,8.64,8.64,0,0,1,2.27,6.5,12.36,12.36,0,0,1-2.08,5.41,35.81,35.81,0,0,1-4.9,6,16.23,16.23,0,0,0-4.93,9.19,17.68,17.68,0,0,0,1,8.45c.64,1.72.51,3.51.64,5.57a7.3,7.3,0,0,1-1.79-2.27,24.75,24.75,0,0,1-2.83-9.6,19.27,19.27,0,0,1,.88-8.8,30.65,30.65,0,0,1,4-6.89,19.5,19.5,0,0,0,3.82-8.36,35.73,35.73,0,0,0,.26-6.55A2.61,2.61,0,0,1,138.86,125.68Z" style="fill:#f2f2f2"/><path d="M133.63,142.59a14.13,14.13,0,0,1-.31-3.76c-.15-3.54-.3-7.09-.44-10.63-.11-3-.24-5.93-.4-8.89s-.39-5.78-.39-8.67a1.86,1.86,0,0,1,.43-1.42l5.72-6.14c.09-.09.19-.16.38-.33a16.72,16.72,0,0,1-.11,2.7c.09,4.32-.23,8.62-.28,12.94,0,2.63,0,5.27-.21,7.89-.14,1.85-.15,3.69-.14,5.53a15.36,15.36,0,0,1-2.47,8.11A17.23,17.23,0,0,1,133.63,142.59Z" style="fill:#f2f2f2"/><path d="M137.42,147.81c-.52,3.5.14,7-.37,10.46a2.77,2.77,0,0,0,0,.41c-.07,4.66-.15,9.32-.2,14,0,3.23-.38,4.79-1.54,6.57a10.28,10.28,0,0,1-.33-3.36c-.12-3.58-.2-7.16-.42-10.74-.19-3-.36-5.92-.42-8.88,0-1.25-.42-2.49,0-3.73A11.13,11.13,0,0,1,137.42,147.81Z" style="fill:#f2f2f2"/><path d="M134,182.25c3.45-3.67,3.51-8.24,3.42-13.08a5.56,5.56,0,0,1,2.05,2.92,6.72,6.72,0,0,1-2,7.14A14.91,14.91,0,0,1,134,182.25Z" style="fill:#f2f2f2"/><path d="M136.41,186.23c-.76-.16-1.13-.58-1-1.17.3-1.3-1.14-3.12,1.28-3.88A26.52,26.52,0,0,0,136.41,186.23Z" style="fill:#f2f2f2"/><path d="M109.48,161.24c-14.55,4.52-27.28,4.62-36.16-.41C96,177.67,118.65,187,135.75,186.77c-7.39-.37-13.65-2.67-18.29-7.11S110.15,168.82,109.48,161.24Z" style="fill:#0075a2;opacity:0.7000000000000001;mix-blend-mode:overlay"/><path d="M73.6,93c-19.52-26.36-29.25-52.91-26-70.94C30.56,17,16.15,18.2,7.64,26.89-11.43,46.38,6.43,96.23,47.53,138.22A223.17,223.17,0,0,0,68.09,156.8q-.32-.31-.63-.66C56.09,143.53,59.34,119.36,73.6,93Z" style="fill:#0075a2;opacity:0.7000000000000001;mix-blend-mode:overlay"/><path d="M109.7,46A216.05,216.05,0,0,1,135.48,24.2C102.37.62,69.57-7,54.67,7.73a26.15,26.15,0,0,0-7.11,14.35c16.69,5,35.87,16,54.43,31.86C104.46,51.26,107,48.6,109.7,46Z" style="fill:#ffce17;opacity:0.7000000000000001;mix-blend-mode:overlay"/><path d="M73.6,93A196.82,196.82,0,0,1,102,53.94C83.43,38.07,64.25,27.06,47.56,22.08,44.35,40.11,54.08,66.66,73.6,93Z" style="fill:#0075a2;opacity:0.7000000000000001;mix-blend-mode:overlay"/><path d="M73.6,93A196.82,196.82,0,0,1,102,53.94C83.43,38.07,64.25,27.06,47.56,22.08,44.35,40.11,54.08,66.66,73.6,93Z" style="fill:#ffce17;opacity:0.7000000000000001;mix-blend-mode:overlay"/><path d="M169.74,54.66c18.35-16.1,37.43-27.34,54-32.44a26.77,26.77,0,0,0-6.31-13.74c-14.42-16-48-8.59-82,15.72a216.59,216.59,0,0,1,28,23.91Q166.71,51.35,169.74,54.66Z" style="fill:#008b17;opacity:0.7000000000000001;mix-blend-mode:overlay"/><path d="M73.32,160.83c-1.74-1.3-3.49-2.64-5.23-4A23.55,23.55,0,0,0,73.32,160.83Z" style="fill:#008b17;opacity:0.7000000000000001;mix-blend-mode:overlay"/><path d="M109.48,161.24c-.69-7.86.69-17.07,4-27a222.06,222.06,0,0,1-19.27-17.32A220.49,220.49,0,0,1,73.6,93c-14.26,26.34-17.51,50.51-6.14,63.12q.32.35.63.66c1.74,1.39,3.49,2.73,5.23,4C82.2,165.86,94.93,165.76,109.48,161.24Z" style="fill:#0075a2;opacity:0.7000000000000001;mix-blend-mode:overlay"/><path d="M109.48,161.24c-.69-7.86.69-17.07,4-27a222.06,222.06,0,0,1-19.27-17.32A220.49,220.49,0,0,1,73.6,93c-14.26,26.34-17.51,50.51-6.14,63.12q.32.35.63.66c1.74,1.39,3.49,2.73,5.23,4C82.2,165.86,94.93,165.76,109.48,161.24Z" style="fill:#008b17;opacity:0.7000000000000001;mix-blend-mode:overlay"/><path d="M102,53.94c4.94,4.23,9.83,8.8,14.62,13.69a223.26,223.26,0,0,1,19.92,23.31A223.32,223.32,0,0,1,154.75,69.1c4.89-5.17,9.91-10,15-14.44q-3-3.3-6.25-6.55a216.59,216.59,0,0,0-28-23.91A216.05,216.05,0,0,0,109.7,46C107,48.6,104.46,51.26,102,53.94Z" style="fill:#ffce17;opacity:0.7000000000000001;mix-blend-mode:overlay"/><path d="M102,53.94c4.94,4.23,9.83,8.8,14.62,13.69a223.26,223.26,0,0,1,19.92,23.31A223.32,223.32,0,0,1,154.75,69.1c4.89-5.17,9.91-10,15-14.44q-3-3.3-6.25-6.55a216.59,216.59,0,0,0-28-23.91A216.05,216.05,0,0,0,109.7,46C107,48.6,104.46,51.26,102,53.94Z" style="fill:#008b17;opacity:0.7000000000000001;mix-blend-mode:overlay"/><path d="M116.61,67.63c-4.79-4.89-9.68-9.46-14.62-13.69A196.82,196.82,0,0,0,73.6,93a220.49,220.49,0,0,0,20.56,23.86,222.06,222.06,0,0,0,19.27,17.32c4.42-13.52,12.28-28.44,23.1-43.26A223.26,223.26,0,0,0,116.61,67.63Z" style="fill:#0075a2;opacity:0.7000000000000001;mix-blend-mode:overlay"/><path d="M116.61,67.63c-4.79-4.89-9.68-9.46-14.62-13.69A196.82,196.82,0,0,0,73.6,93a220.49,220.49,0,0,0,20.56,23.86,222.06,222.06,0,0,0,19.27,17.32c4.42-13.52,12.28-28.44,23.1-43.26A223.26,223.26,0,0,0,116.61,67.63Z" style="fill:#ffce17;opacity:0.7000000000000001;mix-blend-mode:overlay"/><path d="M116.61,67.63c-4.79-4.89-9.68-9.46-14.62-13.69A196.82,196.82,0,0,0,73.6,93a220.49,220.49,0,0,0,20.56,23.86,222.06,222.06,0,0,0,19.27,17.32c4.42-13.52,12.28-28.44,23.1-43.26A223.26,223.26,0,0,0,116.61,67.63Z" style="fill:#008b17;opacity:0.7000000000000001;mix-blend-mode:overlay"/><path d="M262.74,26.3c-8.53-8.16-22.54-9.12-39-4.08,3.08,18.12-6.77,44.64-26.21,70.84,14.75,27.14,17.78,51.91,5.4,64.19-8.4,8.33-22.48,9.53-39.1,4.77-.75,6.85-3.16,12.64-7.37,16.94-5.07,5.18-12.22,7.69-20.76,7.81,23.73,1.19,59.11-17.62,89.7-49.91C265.57,94.51,282.26,45,262.74,26.3Z" style="fill:red;opacity:0.7000000000000001;mix-blend-mode:overlay"/><path d="M163.88,162a125.5,125.5,0,0,1-28.35-12.56,128,128,0,0,1-26,11.78c.67,7.58,3.27,13.9,8,18.42s10.9,6.74,18.29,7.11c8.54-.12,15.69-2.63,20.76-7.81C160.72,174.66,163.13,168.87,163.88,162Z" style="fill:#0075a2;opacity:0.7000000000000001;mix-blend-mode:overlay"/><path d="M163.88,162a125.5,125.5,0,0,1-28.35-12.56,128,128,0,0,1-26,11.78c.67,7.58,3.27,13.9,8,18.42s10.9,6.74,18.29,7.11c8.54-.12,15.69-2.63,20.76-7.81C160.72,174.66,163.13,168.87,163.88,162Z" style="fill:red;opacity:0.7000000000000001;mix-blend-mode:overlay"/><path d="M175.24,118.65c-5.17,5.09-10.44,9.8-15.75,14.12,3.76,10.85,5.32,20.85,4.39,29.25,16.62,4.76,30.7,3.56,39.1-4.77,12.38-12.28,9.35-37-5.4-64.19A221.09,221.09,0,0,1,175.24,118.65Z" style="fill:#ffce17;opacity:0.7000000000000001;mix-blend-mode:overlay"/><path d="M175.24,118.65c-5.17,5.09-10.44,9.8-15.75,14.12,3.76,10.85,5.32,20.85,4.39,29.25,16.62,4.76,30.7,3.56,39.1-4.77,12.38-12.28,9.35-37-5.4-64.19A221.09,221.09,0,0,1,175.24,118.65Z" style="fill:red;opacity:0.7000000000000001;mix-blend-mode:overlay"/><path d="M159.49,132.77a190.71,190.71,0,0,1-24,16.69A125.5,125.5,0,0,0,163.88,162C164.81,153.62,163.25,143.62,159.49,132.77Z" style="fill:#0075a2;opacity:0.7000000000000001;mix-blend-mode:overlay"/><path d="M159.49,132.77a190.71,190.71,0,0,1-24,16.69A125.5,125.5,0,0,0,163.88,162C164.81,153.62,163.25,143.62,159.49,132.77Z" style="fill:#ffce17;opacity:0.7000000000000001;mix-blend-mode:overlay"/><path d="M159.49,132.77a190.71,190.71,0,0,1-24,16.69A125.5,125.5,0,0,0,163.88,162C164.81,153.62,163.25,143.62,159.49,132.77Z" style="fill:red;opacity:0.7000000000000001;mix-blend-mode:overlay"/><path d="M197.58,93.06c19.44-26.2,29.29-52.72,26.21-70.84-16.62,5.1-35.7,16.34-54,32.44A197.41,197.41,0,0,1,197.58,93.06Z" style="fill:#008b17;opacity:0.7000000000000001;mix-blend-mode:overlay"/><path d="M197.58,93.06c19.44-26.2,29.29-52.72,26.21-70.84-16.62,5.1-35.7,16.34-54,32.44A197.41,197.41,0,0,1,197.58,93.06Z" style="fill:red;opacity:0.7000000000000001;mix-blend-mode:overlay"/><path d="M109.48,161.24a128,128,0,0,0,26.05-11.78,189.62,189.62,0,0,1-22.1-15.26C110.17,144.17,108.79,153.38,109.48,161.24Z" style="fill:#0075a2;opacity:0.7000000000000001;mix-blend-mode:overlay"/><path d="M109.48,161.24a128,128,0,0,0,26.05-11.78,189.62,189.62,0,0,1-22.1-15.26C110.17,144.17,108.79,153.38,109.48,161.24Z" style="fill:#008b17;opacity:0.7000000000000001;mix-blend-mode:overlay"/><path d="M109.48,161.24a128,128,0,0,0,26.05-11.78,189.62,189.62,0,0,1-22.1-15.26C110.17,144.17,108.79,153.38,109.48,161.24Z" style="fill:red;opacity:0.7000000000000001;mix-blend-mode:overlay"/><path d="M154.75,69.1a223.32,223.32,0,0,0-18.22,21.84c10.58,14.29,18.39,28.68,23,41.83,5.31-4.32,10.58-9,15.75-14.12a221.09,221.09,0,0,0,22.34-25.59,197.41,197.41,0,0,0-27.84-38.4C164.66,59.11,159.64,63.93,154.75,69.1Z" style="fill:#ffce17;opacity:0.7000000000000001;mix-blend-mode:overlay"/><path d="M154.75,69.1a223.32,223.32,0,0,0-18.22,21.84c10.58,14.29,18.39,28.68,23,41.83,5.31-4.32,10.58-9,15.75-14.12a221.09,221.09,0,0,0,22.34-25.59,197.41,197.41,0,0,0-27.84-38.4C164.66,59.11,159.64,63.93,154.75,69.1Z" style="fill:#008b17;opacity:0.7000000000000001;mix-blend-mode:overlay"/><path d="M154.75,69.1a223.32,223.32,0,0,0-18.22,21.84c10.58,14.29,18.39,28.68,23,41.83,5.31-4.32,10.58-9,15.75-14.12a221.09,221.09,0,0,0,22.34-25.59,197.41,197.41,0,0,0-27.84-38.4C164.66,59.11,159.64,63.93,154.75,69.1Z" style="fill:red;opacity:0.7000000000000001;mix-blend-mode:overlay"/><path d="M136.53,90.94c-10.82,14.82-18.68,29.74-23.1,43.26a189.62,189.62,0,0,0,22.1,15.26,190.71,190.71,0,0,0,24-16.69C154.92,119.62,147.11,105.23,136.53,90.94Z" style="fill:#0075a2;opacity:0.7000000000000001;mix-blend-mode:overlay"/><path d="M136.53,90.94c-10.82,14.82-18.68,29.74-23.1,43.26a189.62,189.62,0,0,0,22.1,15.26,190.71,190.71,0,0,0,24-16.69C154.92,119.62,147.11,105.23,136.53,90.94Z" style="fill:#ffce17;opacity:0.7000000000000001;mix-blend-mode:overlay"/><path d="M136.53,90.94c-10.82,14.82-18.68,29.74-23.1,43.26a189.62,189.62,0,0,0,22.1,15.26,190.71,190.71,0,0,0,24-16.69C154.92,119.62,147.11,105.23,136.53,90.94Z" style="fill:#008b17;opacity:0.7000000000000001;mix-blend-mode:overlay"/><path d="M136.53,90.94c-10.82,14.82-18.68,29.74-23.1,43.26a189.62,189.62,0,0,0,22.1,15.26,190.71,190.71,0,0,0,24-16.69C154.92,119.62,147.11,105.23,136.53,90.94Z" style="fill:red;opacity:0.7000000000000001;mix-blend-mode:overlay"/></g></g></g></svg>